<mxfile host="app.diagrams.net" modified="2023-11-03T06:52:32.639Z" agent="Mozilla/5.0 (Windows NT 10.0; Win64; x64; rv:109.0) Gecko/20100101 Firefox/119.0" etag="7wHX7kJh6FuqxMTANudG" version="22.0.8" type="github">
  <diagram name="Sivu-1" id="jNaYSMbeP0Z_qt4pjJCi">
    <mxGraphModel dx="906" dy="773" grid="1" gridSize="10" guides="1" tooltips="1" connect="1" arrows="1" fold="1" page="1" pageScale="1" pageWidth="827" pageHeight="1169" math="0" shadow="0">
      <root>
        <mxCell id="0" />
        <mxCell id="1" parent="0" />
        <mxCell id="fHiISs76fz-oC04-sptV-9" value="" style="edgeStyle=orthogonalEdgeStyle;rounded=0;orthogonalLoop=1;jettySize=auto;html=1;" edge="1" parent="1" source="fHiISs76fz-oC04-sptV-1" target="fHiISs76fz-oC04-sptV-2">
          <mxGeometry relative="1" as="geometry" />
        </mxCell>
        <mxCell id="fHiISs76fz-oC04-sptV-1" value="Aloitus HTML-sivu" style="ellipse;whiteSpace=wrap;html=1;" vertex="1" parent="1">
          <mxGeometry x="354" y="10" width="120" height="80" as="geometry" />
        </mxCell>
        <mxCell id="fHiISs76fz-oC04-sptV-10" value="" style="edgeStyle=orthogonalEdgeStyle;rounded=0;orthogonalLoop=1;jettySize=auto;html=1;" edge="1" parent="1" source="fHiISs76fz-oC04-sptV-2" target="fHiISs76fz-oC04-sptV-3">
          <mxGeometry relative="1" as="geometry" />
        </mxCell>
        <mxCell id="fHiISs76fz-oC04-sptV-2" value="&lt;div&gt;Pyydä&lt;/div&gt;&lt;div&gt;käyttäjältä luku&lt;/div&gt;" style="shape=parallelogram;perimeter=parallelogramPerimeter;whiteSpace=wrap;html=1;fixedSize=1;" vertex="1" parent="1">
          <mxGeometry x="354" y="120" width="120" height="60" as="geometry" />
        </mxCell>
        <mxCell id="fHiISs76fz-oC04-sptV-11" value="" style="edgeStyle=orthogonalEdgeStyle;rounded=0;orthogonalLoop=1;jettySize=auto;html=1;" edge="1" parent="1" source="fHiISs76fz-oC04-sptV-3" target="fHiISs76fz-oC04-sptV-4">
          <mxGeometry relative="1" as="geometry" />
        </mxCell>
        <mxCell id="fHiISs76fz-oC04-sptV-3" value="Luo muuttuja" style="rounded=0;whiteSpace=wrap;html=1;" vertex="1" parent="1">
          <mxGeometry x="354" y="220" width="120" height="60" as="geometry" />
        </mxCell>
        <mxCell id="fHiISs76fz-oC04-sptV-12" value="" style="edgeStyle=orthogonalEdgeStyle;rounded=0;orthogonalLoop=1;jettySize=auto;html=1;" edge="1" parent="1" source="fHiISs76fz-oC04-sptV-4" target="fHiISs76fz-oC04-sptV-5">
          <mxGeometry relative="1" as="geometry" />
        </mxCell>
        <mxCell id="fHiISs76fz-oC04-sptV-4" value="&lt;div&gt;Lue muuttujaan&lt;/div&gt;&lt;div&gt;käyttäjän luku&lt;br&gt;&lt;/div&gt;" style="rounded=0;whiteSpace=wrap;html=1;" vertex="1" parent="1">
          <mxGeometry x="354" y="320" width="120" height="60" as="geometry" />
        </mxCell>
        <mxCell id="fHiISs76fz-oC04-sptV-13" value="" style="edgeStyle=orthogonalEdgeStyle;rounded=0;orthogonalLoop=1;jettySize=auto;html=1;" edge="1" parent="1" source="fHiISs76fz-oC04-sptV-5" target="fHiISs76fz-oC04-sptV-6">
          <mxGeometry relative="1" as="geometry" />
        </mxCell>
        <mxCell id="fHiISs76fz-oC04-sptV-14" value="" style="edgeStyle=orthogonalEdgeStyle;rounded=0;orthogonalLoop=1;jettySize=auto;html=1;" edge="1" parent="1" source="fHiISs76fz-oC04-sptV-5" target="fHiISs76fz-oC04-sptV-7">
          <mxGeometry relative="1" as="geometry" />
        </mxCell>
        <mxCell id="fHiISs76fz-oC04-sptV-18" value="" style="edgeStyle=orthogonalEdgeStyle;rounded=0;orthogonalLoop=1;jettySize=auto;html=1;" edge="1" parent="1" source="fHiISs76fz-oC04-sptV-5" target="fHiISs76fz-oC04-sptV-17">
          <mxGeometry relative="1" as="geometry" />
        </mxCell>
        <mxCell id="fHiISs76fz-oC04-sptV-5" value="&lt;div&gt;Kysy&lt;/div&gt;&lt;div&gt;käyttäjän&lt;/div&gt;&lt;div&gt;ikä&lt;br&gt;&lt;/div&gt;" style="rhombus;whiteSpace=wrap;html=1;" vertex="1" parent="1">
          <mxGeometry x="374" y="410" width="80" height="80" as="geometry" />
        </mxCell>
        <mxCell id="fHiISs76fz-oC04-sptV-6" value="&lt;div&gt;Ikä on&lt;/div&gt;&lt;div&gt;alle 16&lt;/div&gt;&lt;div&gt;tulosta polkupyörä&lt;br&gt;&lt;/div&gt;" style="shape=parallelogram;perimeter=parallelogramPerimeter;whiteSpace=wrap;html=1;fixedSize=1;" vertex="1" parent="1">
          <mxGeometry x="500" y="420" width="120" height="60" as="geometry" />
        </mxCell>
        <mxCell id="fHiISs76fz-oC04-sptV-15" value="" style="edgeStyle=orthogonalEdgeStyle;rounded=0;orthogonalLoop=1;jettySize=auto;html=1;" edge="1" parent="1" source="fHiISs76fz-oC04-sptV-7" target="fHiISs76fz-oC04-sptV-8">
          <mxGeometry relative="1" as="geometry" />
        </mxCell>
        <mxCell id="fHiISs76fz-oC04-sptV-7" value="&lt;div&gt;Ikä on&lt;/div&gt;&lt;div&gt;18&amp;gt;&lt;/div&gt;&lt;div&gt;tulosta auto&lt;br&gt;&lt;/div&gt;" style="shape=parallelogram;perimeter=parallelogramPerimeter;whiteSpace=wrap;html=1;fixedSize=1;" vertex="1" parent="1">
          <mxGeometry x="354" y="525" width="120" height="60" as="geometry" />
        </mxCell>
        <mxCell id="fHiISs76fz-oC04-sptV-8" value="The End" style="ellipse;whiteSpace=wrap;html=1;" vertex="1" parent="1">
          <mxGeometry x="354" y="620" width="120" height="80" as="geometry" />
        </mxCell>
        <mxCell id="fHiISs76fz-oC04-sptV-16" value="" style="endArrow=classic;html=1;rounded=0;exitX=0.5;exitY=1;exitDx=0;exitDy=0;entryX=1;entryY=0.5;entryDx=0;entryDy=0;" edge="1" parent="1" source="fHiISs76fz-oC04-sptV-6" target="fHiISs76fz-oC04-sptV-8">
          <mxGeometry width="50" height="50" relative="1" as="geometry">
            <mxPoint x="380" y="370" as="sourcePoint" />
            <mxPoint x="520" y="390" as="targetPoint" />
            <Array as="points">
              <mxPoint x="560" y="660" />
            </Array>
          </mxGeometry>
        </mxCell>
        <mxCell id="fHiISs76fz-oC04-sptV-17" value="&lt;div&gt;Ikä on&lt;/div&gt;&lt;div&gt;16-17&lt;/div&gt;&lt;div&gt;tulosta mopo&lt;br&gt;&lt;/div&gt;" style="shape=parallelogram;perimeter=parallelogramPerimeter;whiteSpace=wrap;html=1;fixedSize=1;" vertex="1" parent="1">
          <mxGeometry x="220" y="420" width="120" height="60" as="geometry" />
        </mxCell>
        <mxCell id="fHiISs76fz-oC04-sptV-19" value="" style="endArrow=classic;html=1;rounded=0;exitX=0.5;exitY=1;exitDx=0;exitDy=0;entryX=0;entryY=0.5;entryDx=0;entryDy=0;" edge="1" parent="1" source="fHiISs76fz-oC04-sptV-17" target="fHiISs76fz-oC04-sptV-8">
          <mxGeometry width="50" height="50" relative="1" as="geometry">
            <mxPoint x="380" y="370" as="sourcePoint" />
            <mxPoint x="430" y="320" as="targetPoint" />
            <Array as="points">
              <mxPoint x="280" y="660" />
            </Array>
          </mxGeometry>
        </mxCell>
      </root>
    </mxGraphModel>
  </diagram>
</mxfile>
